<!DOCTYPE svg PUBLIC "-//W3C//DTD SVG 1.1//EN" "http://www.w3.org/Graphics/SVG/1.1/DTD/svg11.dtd">
<!-- Uploaded to: SVG Repo, www.svgrepo.com, Transformed by: SVG Repo Mixer Tools -->
<svg width="800px" height="800px" viewBox="0 0 1024 1024" class="icon" version="1.1" xmlns="http://www.w3.org/2000/svg" fill="#000000">
<g id="SVGRepo_bgCarrier" stroke-width="0"/>
<g id="SVGRepo_tracerCarrier" stroke-linecap="round" stroke-linejoin="round"/>
<g id="SVGRepo_iconCarrier">
<path d="M512.158702 629.297327h-62.696594c-42.355064 0-81.364071-31.87867-81.364071-74.233734v-62.696594c0-15.325516-7.804054-30.986865-23.129569-30.986866h-167.190235c-15.325516 0-31.863311 15.66135-31.863311 30.986866v222.920313c0 15.325516 16.536772 24.58963 31.863311 24.58963h334.380469c15.325516 0 25.904299-9.263091 25.904299-24.58963v-55.730078c0-15.324492-10.578783-30.259907-25.904299-30.259907z" fill="#E0E0E0"/>
<path d="M930.134289 378.445422h-69.662086c-15.364423 0-32.648631 14.962036-32.648631 30.32646v12.676724H714.180492c-23.048683 0-45.059145 20.005695-45.059146 43.053354v17.35588h-47.098725v-31.287888c0-38.413106-29.652743-72.12453-68.065848-72.12453h-46.609308v-25.403619c0-23.048683-13.937127-45.244469-36.98581-45.244468H347.620331v-59.249172c0-4.8911 3.42592-11.398915 1.875757-16.518342h123.303438c5.756283 22.525477 21.201593 28.668789 39.359176 28.668789h9.522134v-28.668789h-9.522134c-7.684259 0-13.932008-6.138193-13.932007-13.822452s6.248772-13.822452 13.932007-13.822452h4.402707v-28.668789h-4.402707c-18.157582 0-33.602892 13.310509-39.359176 28.668789H282.271874c-23.048683 0-45.231158 21.114563-45.231159 44.163246v59.249172H219.57528c-23.048683 0-44.991569 22.19681-44.991569 45.244468v25.403619h-38.603549c-38.413106 0-72.999952 33.711424-72.999952 72.12453v306.51543c0 38.413106 34.586846 66.750156 72.999952 66.750156h80.582847v44.710001c0 23.048683 21.761659 39.248596 44.810341 39.248596h167.190235c23.048683 0 39.875214-16.199914 39.875214-39.248596v-44.710001H553.955749c38.413106 0 68.065849-28.33705 68.065849-66.750156v-37.686147h47.098725v23.753116c0 23.048683 22.011487 37.680004 45.059145 37.680004h113.64308v18.050074c0 15.364423 17.284208 24.953109 32.648631 24.953109h69.662086c15.364423 0 24.650039-9.587662 24.650039-24.953109v-390.110547c0.001024-15.363399-9.284592-30.326459-24.649015-30.32646z m-727.905675-25.402595c0-7.684259 9.662406-15.551794 17.346666-15.551794h44.086454v-88.941847c0-7.684259 10.92588-16.518342 18.61014-16.518341h27.865039c7.684259 0 9.838514 8.835106 9.838514 16.518341v88.941847h150.385205c7.684259 0 10.364791 7.868559 10.364791 15.551794v25.403619h-278.496809v-25.403619z m236.51751 515.502712c0 7.684259-2.499304 11.603692-10.182539 11.603692h-167.190235c-7.684259 0-17.165437-3.919433-17.165437-11.603692v-44.710001h194.538211v44.710001z m152.558914-111.460157c0 23.048683-14.300606 39.105252-37.349289 39.105253H135.980162c-23.048683 0-46.378934-16.05657-46.378933-39.105253V450.569952c0-23.048683 23.330251-45.503512 46.378933-45.503511H553.955749c23.048683 0 37.349289 22.454829 37.349289 45.503511v306.51543z m30.71656-66.354936v-179.179932h47.098725v179.179932h-47.098725z m74.743628 52.422929v-278.650391c0-7.684259 9.731006-16.432336 17.414242-16.432336h10.230662v307.165598h-10.230662c-7.683235-0.001024-17.414242-4.398611-17.414242-12.082871z m57.337578 12.081847v-307.165598h73.719744v307.165598h-73.719744z m175.99053 40.955413h-74.625882v-391.124194h74.666837l-0.040955 391.124194z m-0.906139 16.624826v-14.577056h0.950166l-0.950166 14.577056zM732.601213 204.384917h122.866239v27.644904h-122.866239z" fill="#4c4c52"/>
<path d="M284.13944 839.193818h112.627386v25.597133h-112.627386z" fill="#4c4c52"/>
<path d="M754.102804 504.383317h32.764331v28.668789h-32.764331zM754.102804 560.69701h32.764331v25.597133h-32.764331zM754.102804 615.986817h32.764331v26.621019h-32.764331zM754.102804 670.25274h32.764331v27.644903h-32.764331zM470.360632 603.828179c-38.413106 0-69.662086-31.250004-69.662086-69.662086s31.250004-69.66311 69.662086-69.663109 69.66311 31.250004 69.663109 69.663109-31.250004 69.662086-69.663109 69.662086z m0-111.460156c-23.048683 0-41.797047 18.749388-41.797047 41.79807s18.749388 41.798071 41.797047 41.798071 41.797047-18.749388 41.797046-41.798071c0.001024-23.048683-18.748364-41.798071-41.797046-41.79807zM867.437695 307.797335h-278.650391c-49.936935 0-90.561633-40.676916-90.561633-90.613852s40.623674-90.613851 90.561633-90.613851h278.650391c49.936935 0 90.561633 40.676916 90.561633 90.613851s-40.624698 90.613851-90.561633 90.613852z m-278.650391-153.582799c-34.56944 0-62.696594 28.91145-62.696594 63.48089s28.127154 63.48089 62.696594 63.48089h278.650391c34.56944 0 62.696594-28.91145 62.696594-63.48089s-28.127154-63.48089-62.696594-63.48089h-278.650391z" fill="#f25244"/>
</g>
</svg>