<!DOCTYPE svg PUBLIC "-//W3C//DTD SVG 1.1//EN" "http://www.w3.org/Graphics/SVG/1.1/DTD/svg11.dtd">
<!-- Uploaded to: SVG Repo, www.svgrepo.com, Transformed by: SVG Repo Mixer Tools -->
<svg version="1.1" id="Layer_1" xmlns="http://www.w3.org/2000/svg" xmlns:xlink="http://www.w3.org/1999/xlink" viewBox="0 0 512 512" xml:space="preserve" width="800px" height="800px" fill="#000000">
<g id="SVGRepo_bgCarrier" stroke-width="0"/>
<g id="SVGRepo_tracerCarrier" stroke-linecap="round" stroke-linejoin="round"/>
<g id="SVGRepo_iconCarrier"> <rect x="344.805" y="56.15" transform="matrix(-0.7071 0.7071 -0.7071 -0.7071 656.8423 -159.7225)" style="fill:#e06f54;" width="33.391" height="0.051"/> <path style="fill:#6E6057;" d="M492.169,114.208l-48.088,48.088l-94.365-94.365l48.088-48.088 c26.051-26.051,68.394-26.051,94.365-0.079l0.079,0.079c6.532,6.532,11.412,14.088,14.639,22.037 c1.574,4.093,2.755,8.106,3.542,12.357c0.945,4.092,1.338,8.421,1.259,12.75c0.079,6.375-0.866,12.829-2.676,19.046 C505.941,96.342,500.353,106.023,492.169,114.208z"/> <path style="fill:#615349;" d="M492.169,114.208l-48.088,48.088l-47.144-47.144l95.31-95.31 c6.532,6.532,11.412,14.088,14.639,22.037c1.653,4.014,2.834,8.185,3.542,12.357c0.945,4.092,1.338,8.421,1.259,12.75 c0.079,6.375-0.866,12.829-2.676,19.046C505.941,96.342,500.353,106.023,492.169,114.208z"/> <path style="fill:#f25244;" d="M507.107,483.501L28.501,4.895c-4.76-4.777-11.94-6.212-18.195-3.62 C4.066,3.856,0.002,9.944,0.002,16.699v478.606c0,9.223,7.473,16.696,16.696,16.696h478.606c6.749,0,12.837-4.065,15.423-10.304 C513.313,495.456,511.878,488.272,507.107,483.501z M265.858,401.522c-2.581,6.239-8.668,10.305-15.423,10.305H116.87 c-9.223,0-16.696-7.473-16.696-16.696V261.567c0-6.755,4.065-12.842,10.304-15.423c6.244-2.592,13.429-1.158,18.196,3.62 L262.24,383.327C267.016,388.099,268.445,395.284,265.858,401.522z"/> <path style="fill:#f25244;" d="M507.107,483.501L267.848,244.241l-72.347,72.347l66.739,66.739 c4.777,4.772,6.206,11.956,3.62,18.196c-2.581,6.239-8.668,10.304-15.423,10.304H116.872c-4.589,0-8.743-1.852-11.76-4.847 L4.944,507.146C7.961,510.141,12.108,512,16.697,512h478.606c6.749,0,12.838-4.065,15.424-10.304 C513.313,495.457,511.878,488.272,507.107,483.501z"/> <g> <path style="fill:#ffffff;" d="M50.088,144.698H0.002v33.391h50.087c9.223,0,16.696-7.473,16.696-16.696 C66.784,152.171,59.311,144.698,50.088,144.698z"/> <path style="fill:#ffffff;" d="M50.088,211.48H0.002v33.391h50.087c9.223,0,16.696-7.473,16.696-16.696 S59.311,211.48,50.088,211.48z"/> <path style="fill:#ffffff;" d="M50.088,278.262H0.002v33.391h50.087c9.223,0,16.696-7.473,16.696-16.696 C66.784,285.735,59.311,278.262,50.088,278.262z"/> <path style="fill:#ffffff;" d="M50.088,345.044H0.002v33.391h50.087c9.223,0,16.696-7.473,16.696-16.696 S59.311,345.044,50.088,345.044z"/> <path style="fill:#ffffff;" d="M50.088,411.827H0.002v33.391h50.087c9.223,0,16.696-7.473,16.696-16.696 S59.311,411.827,50.088,411.827z"/> </g> <path style="fill:#6BBAE2;" d="M289.459,313.075l1.937-0.612c2.518-0.787,4.801-2.282,6.689-4.172l169.606-169.606L373.325,44.32 L203.72,213.925c-1.889,1.889-3.385,4.172-4.172,6.689l-0.612,1.937L289.459,313.075z"/> <path style="fill:#60AED5;" d="M289.459,313.075l1.937-0.612c2.518-0.787,4.801-2.282,6.689-4.172l169.606-169.606l-47.143-47.144 L244.236,267.853L289.459,313.075z"/> <path style="fill:#FFD9B3;" d="M203.307,214.438c-1.671,1.792-3.036,3.867-3.758,6.176l-32.741,103.574 c-1.889,5.981-0.315,12.435,4.093,16.842l0.079,0.079c3.149,3.148,7.398,4.88,11.806,4.88c1.653-0.079,3.306-0.315,5.038-0.787 l103.574-32.741c2.311-0.721,4.384-2.087,6.176-3.758L203.307,214.438z"/> <path style="fill:#FFC080;" d="M250.478,261.611l-79.5,79.5c3.149,3.148,7.398,4.88,11.806,4.88 c1.653-0.079,3.306-0.315,5.038-0.787l103.574-32.741c2.311-0.721,4.384-2.087,6.176-3.758L250.478,261.611z"/> </g>
</svg>