<!DOCTYPE svg PUBLIC "-//W3C//DTD SVG 1.1//EN" "http://www.w3.org/Graphics/SVG/1.1/DTD/svg11.dtd">
<!-- Uploaded to: SVG Repo, www.svgrepo.com, Transformed by: SVG Repo Mixer Tools -->
<svg width="800px" height="800px" viewBox="0 0 32 32" xmlns="http://www.w3.org/2000/svg" fill="#000000">
<g id="SVGRepo_bgCarrier" stroke-width="0"/>
<g id="SVGRepo_tracerCarrier" stroke-linecap="round" stroke-linejoin="round"/>
<g id="SVGRepo_iconCarrier"> <defs> <style>.cls-1{fill:#d37e45;}.cls-2{fill:none;}.cls-3{fill:#d7d3d0;}</style> </defs> <title/> <g data-name="Layer 11" id="Layer_11"> <path class="cls-1" d="M16,12a1,1,0,0,1-1-1V7a1,1,0,0,1,2,0v4A1,1,0,0,1,16,12Z"/> <path class="cls-1" d="M7,30a.9.9,0,0,1-.5-.14,1,1,0,0,1-.36-1.36l7-12a1,1,0,1,1,1.72,1l-7,12A1,1,0,0,1,7,30Z"/> <path class="cls-1" d="M25,30a1,1,0,0,1-.86-.5l-7-12a1,1,0,1,1,1.72-1l7,12a1,1,0,0,1-.36,1.36A.9.9,0,0,1,25,30Z"/> <path class="cls-1" d="M16,29.09a1,1,0,0,1-1-1V17a1,1,0,0,1,2,0V28.09A1,1,0,0,1,16,29.09Z"/> <path class="cls-1" d="M8.46,11.59a1,1,0,0,1-.72-.32,1,1,0,0,1,0-1.41l4.21-4a1,1,0,1,1,1.38,1.45l-4.21,4A1,1,0,0,1,8.46,11.59Z"/> <rect class="cls-2" height="0.52" transform="translate(-7.01 8.25) rotate(-45)" width="2.31" x="5.29" y="12.33"/> <polygon class="cls-2" points="15 16.04 17 16 17 11.96 14.96 12 15 16.04"/> <rect class="cls-2" height="2" width="4" x="14" y="4"/> <path class="cls-3" d="M19,2H13a1,1,0,0,0-1,1V7a1,1,0,0,0,1,1h6a1,1,0,0,0,1-1V3A1,1,0,0,0,19,2ZM18,6H14V4h4Z"/> <rect class="cls-3" height="8" rx="1.96" width="6" x="13" y="10"/> <path class="cls-3" d="M7.79,9.46a1,1,0,0,0-1.41,0l-3,3a1,1,0,0,0-.29.71,1,1,0,0,0,.29.71l1.78,1.78a1,1,0,0,0,1.41,0l3.05-3.05a1,1,0,0,0,.3-.71,1,1,0,0,0-.3-.71Z"/> </g> </g>
</svg>