<!DOCTYPE svg PUBLIC "-//W3C//DTD SVG 1.1//EN" "http://www.w3.org/Graphics/SVG/1.1/DTD/svg11.dtd">
<!-- Uploaded to: SVG Repo, www.svgrepo.com, Transformed by: SVG Repo Mixer Tools -->
<svg fill="#1b5e79" height="800px" width="800px" version="1.1" id="Layer_1" xmlns="http://www.w3.org/2000/svg" xmlns:xlink="http://www.w3.org/1999/xlink" viewBox="0 0 512.002 512.002" xml:space="preserve" stroke="#1b5e79">
<g id="SVGRepo_bgCarrier" stroke-width="0"/>
<g id="SVGRepo_tracerCarrier" stroke-linecap="round" stroke-linejoin="round"/>
<g id="SVGRepo_iconCarrier"> <g> <g> <path d="M441.906,482.905L318.75,371.751v-59.612h23.982c9.222,0,16.698-7.476,16.698-16.698v-57.975 c0-9.222-7.476-16.698-16.698-16.698h-33.764l-61.429-61.428c12.77-7.992,22.051-7.724,23.684-6.086 c6.521,6.519,17.094,6.52,23.616,0.001c6.52-6.52,6.521-17.094,0.001-23.616c-2.596-2.595-0.921-19.277,16.593-36.793 c17.51-17.51,34.187-19.18,36.785-16.585c6.52,6.52,17.094,6.52,23.615,0c6.521-6.521,6.521-17.094,0-23.615 c-70.194-70.194-184.408-70.194-254.602,0s-70.194,184.407,0,254.601c6.521,6.521,17.094,6.521,23.615,0 c6.521-6.521,6.521-17.094,0-23.615c-0.854-0.855-1.587-4.47,0.078-10.534c8.221-29.948,46.848-49.296,53.3-42.844 c6.52,6.52,17.094,6.52,23.615,0c6.521-6.521,6.521-17.094,0-23.615c-1.622-1.622-1.931-10.875,6.086-23.686l61.429,61.428 c0,11.593,0,115.61,0,127.362L162.188,482.905c-6.846,6.18-7.387,16.738-1.209,23.585c6.18,6.845,16.738,7.388,23.585,1.209 l56.63-51.111l44.159,17.544v21.17c0,9.222,7.476,16.698,16.698,16.698c9.222,0,16.698-7.476,16.698-16.698v-21.174l44.151-17.54 l56.63,51.112c6.841,6.174,17.401,5.642,23.585-1.209C449.293,499.643,448.752,489.085,441.906,482.905z M318.75,254.164h7.284 v24.578h-7.284V254.164z M183.925,196.338c-27.24,3.209-55.481,26.445-68.968,52.281c-29.325-55.4-20.693-125.777,25.889-172.358 c46.567-46.567,116.945-55.219,172.359-25.89c-25.001,13.049-49.069,40.995-52.366,68.98 C225.794,123.528,188.053,161.292,183.925,196.338z M285.353,438.195l-16.513-6.56l16.513-14.904V438.195z M318.75,438.191 v-21.453l16.505,14.896L318.75,438.191z"/> </g> </g> </g>
</svg>